<mxfile host="app.diagrams.net" modified="2024-03-31T03:02:37.907Z" agent="Mozilla/5.0 (Macintosh; Intel Mac OS X 10_15_7) AppleWebKit/537.36 (KHTML, like Gecko) Chrome/123.0.0.0 Safari/537.36" etag="kTj4HH49IMyZJdwX4YxC" version="24.2.0" type="github">
  <diagram name="第 1 页" id="ArNGjJzckgW9GQecaOlF">
    <mxGraphModel dx="1434" dy="786" grid="1" gridSize="10" guides="1" tooltips="1" connect="1" arrows="1" fold="1" page="1" pageScale="1" pageWidth="827" pageHeight="1169" math="0" shadow="0">
      <root>
        <mxCell id="0" />
        <mxCell id="1" parent="0" />
        <mxCell id="wQdQabCVC8La_C4h437c-6" style="edgeStyle=orthogonalEdgeStyle;rounded=0;orthogonalLoop=1;jettySize=auto;html=1;exitX=0;exitY=1;exitDx=0;exitDy=0;" edge="1" parent="1" source="wQdQabCVC8La_C4h437c-1" target="wQdQabCVC8La_C4h437c-2">
          <mxGeometry relative="1" as="geometry" />
        </mxCell>
        <mxCell id="wQdQabCVC8La_C4h437c-8" value="Render" style="edgeLabel;html=1;align=center;verticalAlign=middle;resizable=0;points=[];" vertex="1" connectable="0" parent="wQdQabCVC8La_C4h437c-6">
          <mxGeometry x="0.0559" y="2" relative="1" as="geometry">
            <mxPoint as="offset" />
          </mxGeometry>
        </mxCell>
        <mxCell id="wQdQabCVC8La_C4h437c-7" style="edgeStyle=orthogonalEdgeStyle;rounded=0;orthogonalLoop=1;jettySize=auto;html=1;exitX=1;exitY=1;exitDx=0;exitDy=0;entryX=0.5;entryY=0;entryDx=0;entryDy=0;" edge="1" parent="1" source="wQdQabCVC8La_C4h437c-1" target="wQdQabCVC8La_C4h437c-3">
          <mxGeometry relative="1" as="geometry" />
        </mxCell>
        <mxCell id="wQdQabCVC8La_C4h437c-9" value="Render" style="edgeLabel;html=1;align=center;verticalAlign=middle;resizable=0;points=[];" vertex="1" connectable="0" parent="wQdQabCVC8La_C4h437c-7">
          <mxGeometry x="0.2232" y="-2" relative="1" as="geometry">
            <mxPoint as="offset" />
          </mxGeometry>
        </mxCell>
        <mxCell id="wQdQabCVC8La_C4h437c-1" value="App" style="ellipse;whiteSpace=wrap;html=1;aspect=fixed;" vertex="1" parent="1">
          <mxGeometry x="400" y="60" width="80" height="80" as="geometry" />
        </mxCell>
        <mxCell id="wQdQabCVC8La_C4h437c-2" value="A" style="ellipse;whiteSpace=wrap;html=1;aspect=fixed;" vertex="1" parent="1">
          <mxGeometry x="280" y="180" width="80" height="80" as="geometry" />
        </mxCell>
        <mxCell id="wQdQabCVC8La_C4h437c-3" value="B" style="ellipse;whiteSpace=wrap;html=1;aspect=fixed;" vertex="1" parent="1">
          <mxGeometry x="520" y="180" width="80" height="80" as="geometry" />
        </mxCell>
      </root>
    </mxGraphModel>
  </diagram>
</mxfile>
